<svg xmlns="http://www.w3.org/2000/svg" width="100%" height="400" viewBox="0 0 1200 400"><defs><linearGradient id="bg-grad" x1="0%" x2="100%" y1="0%" y2="100%"><stop offset="0%" stop-color="#0b0f19"/><stop offset="50%" stop-color="#111827"/><stop offset="100%" stop-color="#1e1b4b"/></linearGradient><linearGradient id="accent-grad" x1="0%" x2="100%" y1="0%" y2="0%"><stop offset="0%" stop-color="#6366f1"/><stop offset="50%" stop-color="#a855f7"/><stop offset="100%" stop-color="#ec4899"/></linearGradient><filter id="glow" width="140%" height="140%" x="-20%" y="-20%"><feGaussianBlur result="blur" stdDeviation="8"/><feMerge><feMergeNode in="blur"/><feMergeNode in="SourceGraphic"/></feMerge></filter><style>@keyframes pulse{0%{transform:scale(.96);opacity:.7}}.pulsing-circle{animation:pulse 3s ease-in-out infinite alternate}.dash-flow{stroke-dasharray:8,8;animation:dash 2s linear infinite}</style></defs><rect width="1200" height="400" fill="url(#bg-grad)" rx="20"/><rect width="1196" height="396" x="2" y="2" fill="none" stroke="#312e81" stroke-width="2" opacity=".6" rx="18"/><g stroke="#818cf8" stroke-width="1" opacity=".2"><line x1="100" x2="100" y1="0" y2="400" stroke-dasharray="4 4"/><line x1="300" x2="300" y1="0" y2="400" stroke-dasharray="4 4"/><line x1="600" x2="600" y1="0" y2="400" stroke-dasharray="4 4"/><line x1="900" x2="900" y1="0" y2="400" stroke-dasharray="4 4"/><line x1="1100" x2="1100" y1="0" y2="400" stroke-dasharray="4 4"/></g><g transform="translate(880, 200)"><path stroke="#a855f7" stroke-width="2.5" d="M0,-80 L-100,50" class="dash-flow" opacity=".8"/><path stroke="#ec4899" stroke-width="2.5" d="M0,-80 L100,50" class="dash-flow" opacity=".8"/><path stroke="#6366f1" stroke-width="2" d="M-100,50 L-150,130" class="dash-flow" opacity=".7"/><path stroke="#6366f1" stroke-width="2" d="M-100,50 L-50,130" class="dash-flow" opacity=".7"/><path stroke="#ec4899" stroke-width="2" d="M100,50 L50,130" class="dash-flow" opacity=".7"/><path stroke="#ec4899" stroke-width="2" d="M100,50 L150,130" class="dash-flow" opacity=".7"/><circle cx="0" cy="-80" r="26" fill="#4f46e5" class="pulsing-circle" filter="url(#glow)"/><text x="0" y="-74" fill="#fff" font-family="system-ui, -apple-system, sans-serif" font-size="14" font-weight="bold" text-anchor="middle">👑 TOP</text><circle cx="-100" cy="50" r="20" fill="#7c3aed" filter="url(#glow)"/><text x="-100" y="55" fill="#fff" font-family="system-ui, -apple-system, sans-serif" font-size="11" font-weight="bold" text-anchor="middle">PLAN-A</text><circle cx="100" cy="50" r="20" fill="#db2777" filter="url(#glow)"/><text x="100" y="55" fill="#fff" font-family="system-ui, -apple-system, sans-serif" font-size="11" font-weight="bold" text-anchor="middle">PLAN-B</text><circle cx="-150" cy="130" r="14" fill="#2563eb"/><circle cx="-50" cy="130" r="14" fill="#2563eb"/><circle cx="50" cy="130" r="14" fill="#c026d3"/><circle cx="150" cy="130" r="14" fill="#c026d3"/></g><g transform="translate(80, 100)"><rect width="280" height="32" fill="#1e1b4b" stroke="#4338ca" stroke-width="1" rx="16"/><text x="140" y="21" fill="#a5b4fc" font-family="system-ui, -apple-system, sans-serif" font-size="12" font-weight="bold" letter-spacing="1" text-anchor="middle">⚡ MULTI-TIER AI ARCHITECTURES</text><text x="0" y="90" fill="#fff" font-family="system-ui, -apple-system, sans-serif" font-size="48" font-weight="900" letter-spacing="-1">Hierarchical Reasoning</text><text x="0" y="145" fill="url(#accent-grad)" font-family="system-ui, -apple-system, sans-serif" font-size="48" font-weight="900" letter-spacing="-1">Models (HRM) Tutorials 🧠</text><text x="0" y="195" fill="#94a3b8" font-family="system-ui, -apple-system, sans-serif" font-size="18" font-weight="400">Master Autonomous Agent Planning, Multi-Tier Abstractions &amp; Neuro-Symbolic AI</text><g transform="translate(0, 225)"><rect width="120" height="28" fill="#312e81" rx="6"/><text x="60" y="18" fill="#e0e7ff" font-family="system-ui, -apple-system, sans-serif" font-size="12" font-weight="600" text-anchor="middle">📚 21 Chapters</text><rect width="130" height="28" x="130" fill="#581c87" rx="6"/><text x="195" y="18" fill="#f3e8ff" font-family="system-ui, -apple-system, sans-serif" font-size="12" font-weight="600" text-anchor="middle">🤖 LLM + Agents</text><rect width="120" height="28" x="270" fill="#831843" rx="6"/><text x="330" y="18" fill="#fce7f3" font-family="system-ui, -apple-system, sans-serif" font-size="12" font-weight="600" text-anchor="middle">🚀 100% Practical</text></g></g></svg>